<svg xmlns="http://www.w3.org/2000/svg" width="32" height="32"><path d="M16 2C8.268 2 2 3.959 2 6.375V9l10.5 10.5v8.75c0 .966 1.567 1.75 3.5 1.75s3.5-.784 3.5-1.75V19.5L30 9V6.375C30 3.959 23.732 2 16 2zM4.581 5.796c.655-.373 1.575-.728 2.66-1.025C9.646 4.113 12.756 3.75 16 3.75s6.355.363 8.759 1.021c1.085.297 2.005.652 2.66 1.025.432.246.665.455.774.579-.109.124-.342.333-.774.579-.655.373-1.575.728-2.66 1.025C22.354 8.637 19.244 9 16 9s-6.354-.363-8.759-1.021c-1.085-.297-2.005-.652-2.66-1.025-.432-.246-.665-.455-.774-.579.109-.124.342-.333.774-.579z"/></svg>