<svg xmlns="http://www.w3.org/2000/svg" width="13" height="32"><path d="M10.536 10.806L6.612 24.888c-.231.693-.231 1.385-.231 1.616s0 .231.231.462c0 .231.231.231.462.231s.462 0 .693-.231c.693-.462 1.385-1.385 2.078-2.77l.693.462c-2.309 3.232-4.386 5.079-6.695 5.079-.923 0-1.616-.231-2.078-.693s-.693-1.154-.693-1.847c0-.462 0-1.154.231-1.847l2.77-9.465c.462-1.154.462-1.847.462-2.309 0-.231-.231-.462-.462-.693s-.462-.231-.923-.231h-.693l.231-.693zM11.459 7.343c-.462.462-1.154.923-2.078.923-.693 0-1.385-.231-2.078-.923-.462-.693-.693-1.385-.693-2.078s.231-1.385.923-2.078c.462-.462 1.154-.923 2.078-.923s1.616.231 2.078.923c.462.462.693 1.154.693 2.078 0 .693-.231 1.385-.923 2.078z"/></svg>