<svg xmlns="http://www.w3.org/2000/svg" width="32" height="32"><path d="M13.692 29.77v-7.266c0-.56.035-1.127.105-1.701s.189-1.099.357-1.575c-.364.392-.77.742-1.218 1.05s-.924.616-1.428.924l-6.132 3.57-3.024-4.998 6.132-3.57c.532-.308 1.064-.574 1.596-.798s1.078-.392 1.638-.504c-.56-.112-1.106-.287-1.638-.525s-1.064-.511-1.596-.819L2.352 9.904l3.024-5.04 6.132 3.696c.504.308.987.623 1.449.945s.875.679 1.239 1.071c-.336-.952-.504-2.03-.504-3.234v-7.35h6.132v7.266c0 .588-.035 1.162-.105 1.722s-.189 1.092-.357 1.596c.364-.392.77-.749 1.218-1.071s.924-.637 1.428-.945l6.132-3.612 3.024 5.04-6.132 3.57c-.56.308-1.106.574-1.638.798s-1.078.392-1.638.504c.56.112 1.113.287 1.659.525s1.085.511 1.617.819l6.132 3.654-3.024 4.998-6.132-3.654c-.532-.308-1.022-.623-1.47-.945s-.868-.679-1.26-1.071c.364.98.546 2.058.546 3.234v7.35h-6.132z"/></svg>