<svg xmlns="http://www.w3.org/2000/svg" width="26" height="32"><path d="M17.285 23.514L15.683 32h-2.35c-.416 0-.777-.166-1.082-.499s-.458-.742-.458-1.227a1.797 1.797 0 01.041-.396l1.227-6.365H8.797l-1.206 6.614c-.125.666-.409 1.144-.853 1.435s-.936.437-1.477.437H2.994l1.581-8.486H2.183c-.444 0-.783-.107-1.019-.322S.81 22.619.81 22.12c0-.194.021-.416.062-.666l.27-1.643h3.952l1.082-5.741H1.725l.395-2.142c.097-.527.312-.919.645-1.175s.874-.385 1.622-.385h2.309l1.29-6.698c.111-.555.367-.985.77-1.29s.874-.458 1.414-.458h2.33l-1.581 8.445h4.243l1.602-8.445h2.288c.485 0 .881.139 1.186.416s.458.631.458 1.061c0 .139-.007.243-.021.312l-1.29 6.656h4.222l-.395 2.142c-.097.527-.315.919-.655 1.175s-.877.385-1.612.385h-2.08l-1.061 5.741h2.954c.444 0 .78.107 1.009.322s.343.579.343 1.092c0 .194-.021.416-.062.666l-.25 1.622h-4.514zm-7.967-3.703h4.264l1.061-5.741H10.4l-1.082 5.741z"/></svg>