<svg xmlns="http://www.w3.org/2000/svg" width="39" height="32"><path d="M26.905 4.994L32.03 0l3.481 3.392L6.155 32l-3.481-3.392 4.076-3.973a30.449 30.449 0 01-6.672-7.88l-.077-.142C3.775 10.06 11.194 3.419 19.693 3.419c2.523 0 4.948.583 7.212 1.575zM11.168 20.33l3.36-3.274a4.91 4.91 0 01-.017-.419v-.026.001c0-2.806 2.306-5.073 5.182-5.073.16 0 .32.007.475.02l3.36-3.274a9.305 9.305 0 00-3.812-.803h-.024.001c-5.145 0-9.329 4.086-9.329 9.132 0 1.324.288 2.58.805 3.717zm23.286-10.09a30.506 30.506 0 014.853 6.233l.077.143C35.61 23.166 28.211 29.81 19.692 29.81a17.105 17.105 0 01-4.766-.688l.121.03 3.557-3.466c.357.039.721.062 1.088.062 5.145 0 9.329-4.089 9.329-9.132 0-.345-.02-.689-.059-1.022l5.492-5.354z"/></svg>