<svg xmlns="http://www.w3.org/2000/svg" width="33" height="32"><path d="M26.446 8.727c1.058-.793 1.851-1.851 2.38-2.909-1.058.529-2.116 1.058-3.438 1.322-1.058-1.322-2.38-1.851-3.967-1.851-2.909 0-5.289 2.38-5.289 5.289 0 .529 0 .793.264 1.322-4.76-.264-8.727-2.38-11.372-5.554-.529.793-.793 1.587-.793 2.645 0 1.851 1.058 3.438 2.38 4.496-.793 0-1.587-.264-2.38-.793a5.403 5.403 0 004.231 5.289c-.264.264-.793.529-1.322.529H6.082c.793 2.116 2.645 3.702 5.025 3.702-1.851 1.322-3.967 2.116-6.612 2.116H3.173c2.38 1.587 5.289 2.38 8.198 2.38 10.05 0 15.339-8.198 15.339-15.339v-.793c1.058-.793 1.851-1.851 2.645-2.909-.793.529-1.851.793-2.909 1.058z"/></svg>