<svg xmlns="http://www.w3.org/2000/svg" width="29" height="32"><path d="M14.598 14.58c3.245 0 5.87-2.615 5.87-5.835s-2.626-5.835-5.87-5.835c-3.245 0-5.87 2.615-5.87 5.835s2.626 5.835 5.87 5.835zm0 2.909c-4.849 0-8.779-3.915-8.779-8.745S9.75-.001 14.598-.001c4.849 0 8.779 3.915 8.779 8.745s-3.931 8.745-8.779 8.745zM2.934 31.975L0 32v-4.565c0-5.858 6.512-7.071 14.545-7.071s14.545 1.213 14.545 7.071v4.319c-1.956.006-2.934.006-2.934 0v-4.319c0-2.792-3.364-4.115-11.611-4.115S2.934 24.643 2.934 27.435v4.54z"/></svg>